<svg width="24" height="24" viewBox="0 0 24 24" fill="none" xmlns="http://www.w3.org/2000/svg">
<path opacity="0.9" d="M22.9924 3.94923C22.9925 3.7726 22.9458 3.59909 22.8571 3.44637C22.7683 3.29366 22.6407 3.1672 22.4871 3.07986C22.3336 2.99253 22.1597 2.94744 21.983 2.94919C21.8064 2.95095 21.6334 2.99948 21.4816 3.08985C20.8963 3.43823 20.2662 3.70503 19.6086 3.88285C18.6696 3.07708 17.472 2.63615 16.2347 2.64066C14.8772 2.64222 13.5735 3.17125 12.5989 4.11604C11.6242 5.06083 11.0548 6.34742 11.011 7.70414C8.335 7.2774 5.90965 5.88066 4.19747 3.78028C4.09431 3.65511 3.96256 3.55659 3.81333 3.49303C3.6641 3.42946 3.50178 3.40271 3.34005 3.41503C3.17841 3.42834 3.02244 3.48082 2.88564 3.56794C2.74884 3.65506 2.63532 3.77419 2.55489 3.91503C2.14242 4.63484 1.90552 5.44179 1.86344 6.27034C1.82136 7.09889 1.97528 7.92568 2.3127 8.68358L2.31075 8.68553C2.1591 8.77893 2.03394 8.90969 1.94725 9.06528C1.86057 9.22087 1.81525 9.3961 1.81563 9.57421C1.81379 9.72114 1.82261 9.86801 1.842 10.0137C1.94414 11.2719 2.50178 12.4497 3.41036 13.3262C3.34872 13.4436 3.3111 13.5721 3.2997 13.7042C3.2883 13.8364 3.30334 13.9694 3.34395 14.0957C3.74006 15.3298 4.58245 16.3718 5.70626 17.0176C4.5645 17.4591 3.33168 17.613 2.11641 17.4658C1.89148 17.4376 1.66364 17.4866 1.47026 17.6049C1.27688 17.7232 1.12944 17.9037 1.05212 18.1168C0.974813 18.3299 0.97222 18.563 1.04477 18.7777C1.11732 18.9925 1.26071 19.1762 1.45141 19.2988C3.5415 20.645 5.97509 21.3607 8.46118 21.3604C11.2804 21.3921 14.0311 20.4912 16.2854 18.7978C18.5397 17.1044 20.1711 14.7135 20.926 11.997C21.2791 10.8137 21.4593 9.5855 21.4612 8.35059C21.4612 8.28516 21.4612 8.21778 21.4602 8.1504C21.9823 7.58733 22.3868 6.9257 22.6499 6.2043C22.913 5.48289 23.0294 4.71622 22.9924 3.94923ZM19.6857 7.16114C19.5206 7.35648 19.437 7.60794 19.4523 7.86329C19.4621 8.02829 19.4611 8.19429 19.4611 8.35059C19.4591 9.39413 19.3061 10.4319 19.007 11.4316C18.3905 13.743 17.0162 15.7807 15.1041 17.2182C13.192 18.6558 10.8529 19.4101 8.46118 19.3604C7.60206 19.3606 6.7459 19.2597 5.9104 19.0596C6.97581 18.7162 7.97199 18.1869 8.85278 17.4961C9.01501 17.3684 9.13373 17.1936 9.19267 16.9957C9.2516 16.7978 9.24786 16.5865 9.18195 16.3908C9.11605 16.1952 8.99121 16.0247 8.82456 15.9028C8.65791 15.7809 8.45762 15.7135 8.25118 15.71C7.42001 15.697 6.62631 15.362 6.03731 14.7754C6.18673 14.7471 6.33517 14.7119 6.48263 14.6699C6.69864 14.6084 6.88767 14.476 7.01929 14.2941C7.15091 14.1121 7.21745 13.8911 7.2082 13.6667C7.19896 13.4423 7.11446 13.2275 6.96831 13.057C6.82217 12.8865 6.62289 12.7701 6.40255 12.7266C5.92009 12.6313 5.4661 12.426 5.07586 12.1268C4.68563 11.8275 4.36967 11.4422 4.15255 11.001C4.33328 11.0256 4.51516 11.041 4.69747 11.0469C4.91405 11.0502 5.12606 10.9845 5.30285 10.8593C5.47963 10.7341 5.61202 10.556 5.68087 10.3506C5.74685 10.1434 5.74345 9.92025 5.6712 9.71512C5.59894 9.50999 5.46177 9.33401 5.28048 9.21387C4.84063 8.92084 4.48032 8.52329 4.23184 8.05683C3.98335 7.59036 3.85444 7.06955 3.85665 6.54103C3.85665 6.47463 3.8586 6.40822 3.86251 6.34279C6.10377 8.43304 9.01083 9.66524 12.0715 9.82228C12.226 9.82837 12.3799 9.79927 12.5215 9.73718C12.6631 9.67509 12.7887 9.58164 12.8889 9.46388C12.9881 9.34498 13.0583 9.20469 13.0941 9.05404C13.1298 8.90339 13.1301 8.7465 13.0949 8.59572C13.0377 8.35708 13.0085 8.11259 13.008 7.8672C13.0089 7.01173 13.3491 6.19157 13.954 5.58667C14.5589 4.98176 15.3791 4.64153 16.2346 4.64063C16.6747 4.63945 17.1103 4.72953 17.5139 4.90518C17.9174 5.08082 18.2802 5.33823 18.5793 5.66114C18.6946 5.78522 18.8398 5.87773 19.001 5.92987C19.1622 5.98202 19.334 5.99205 19.5002 5.95903C19.911 5.87909 20.3159 5.77142 20.7121 5.63677C20.4418 6.18974 20.0964 6.70272 19.6857 7.16114Z" fill="#242424"/>
</svg>
