<svg width="144" height="16" viewBox="0 0 144 16" fill="none" xmlns="http://www.w3.org/2000/svg">
<g clip-path="url(#clip0_1707_405)">
<path d="M16 8C16 3.58172 12.4183 0 8 0C3.58172 0 0 3.58172 0 8C0 11.993 2.92547 15.3027 6.75 15.9028V10.3125H4.71875V8H6.75V6.2375C6.75 4.2325 7.94438 3.125 9.77172 3.125C10.6467 3.125 11.5625 3.28125 11.5625 3.28125V5.25H10.5538C9.56 5.25 9.25 5.86672 9.25 6.5V8H11.4688L11.1141 10.3125H9.25V15.9028C13.0745 15.3027 16 11.993 16 8Z" fill="#6D6E76"/>
</g>
<g clip-path="url(#clip1_1707_405)">
<path d="M47.6995 14.5C53.7357 14.5 57.0382 9.4978 57.0382 5.16124C57.0382 5.02062 57.0351 4.87687 57.0288 4.73624C57.6713 4.27164 58.2257 3.69617 58.666 3.03687C58.0677 3.30307 57.4324 3.47692 56.782 3.55249C57.4669 3.14194 57.9797 2.49698 58.2254 1.73718C57.5811 2.11904 56.8764 2.38841 56.1416 2.53374C55.6466 2.00771 54.992 1.65941 54.2791 1.5427C53.5663 1.42599 52.8348 1.54737 52.1978 1.88806C51.5609 2.22876 51.0539 2.7698 50.7552 3.42754C50.4566 4.08528 50.383 4.82308 50.5457 5.52687C49.241 5.46139 47.9646 5.12247 46.7993 4.53207C45.634 3.94166 44.6058 3.11296 43.7813 2.09968C43.3623 2.82216 43.2341 3.6771 43.4227 4.49073C43.6114 5.30436 44.1027 6.01563 44.797 6.47999C44.2758 6.46344 43.766 6.32312 43.3098 6.07062V6.11124C43.3093 6.86943 43.5714 7.60439 44.0516 8.19118C44.5317 8.77797 45.2002 9.18037 45.9435 9.32999C45.4607 9.46209 44.954 9.48133 44.4626 9.38624C44.6723 10.0383 45.0804 10.6086 45.6299 11.0176C46.1793 11.4265 46.8428 11.6537 47.5276 11.6675C46.365 12.5807 44.9288 13.0761 43.4504 13.0737C43.1882 13.0733 42.9263 13.0573 42.666 13.0256C44.1679 13.9892 45.915 14.5009 47.6995 14.5Z" fill="#6D6E76"/>
</g>
<g clip-path="url(#clip2_1707_405)">
<path d="M93.334 1.44062C95.4715 1.44062 95.7246 1.45 96.5652 1.4875C97.3465 1.52187 97.7684 1.65313 98.0496 1.7625C98.4215 1.90625 98.6902 2.08125 98.9684 2.35938C99.2496 2.64062 99.4215 2.90625 99.5652 3.27813C99.6746 3.55938 99.8059 3.98438 99.8402 4.7625C99.8777 5.60625 99.8871 5.85938 99.8871 7.99375C99.8871 10.1313 99.8777 10.3844 99.8402 11.225C99.8059 12.0063 99.6746 12.4281 99.5652 12.7094C99.4215 13.0813 99.2465 13.35 98.9684 13.6281C98.6871 13.9094 98.4215 14.0813 98.0496 14.225C97.7684 14.3344 97.3434 14.4656 96.5652 14.5C95.7215 14.5375 95.4684 14.5469 93.334 14.5469C91.1965 14.5469 90.9434 14.5375 90.1027 14.5C89.3215 14.4656 88.8996 14.3344 88.6184 14.225C88.2465 14.0813 87.9777 13.9063 87.6996 13.6281C87.4184 13.3469 87.2465 13.0813 87.1027 12.7094C86.9934 12.4281 86.8621 12.0031 86.8277 11.225C86.7902 10.3813 86.7809 10.1281 86.7809 7.99375C86.7809 5.85625 86.7902 5.60313 86.8277 4.7625C86.8621 3.98125 86.9934 3.55938 87.1027 3.27813C87.2465 2.90625 87.4215 2.6375 87.6996 2.35938C87.9809 2.07812 88.2465 1.90625 88.6184 1.7625C88.8996 1.65313 89.3246 1.52187 90.1027 1.4875C90.9434 1.45 91.1965 1.44062 93.334 1.44062ZM93.334 0C91.1621 0 90.8902 0.009375 90.0371 0.046875C89.1871 0.084375 88.6027 0.221875 88.0965 0.41875C87.5684 0.625 87.1215 0.896875 86.6777 1.34375C86.2309 1.7875 85.959 2.23438 85.7527 2.75938C85.5559 3.26875 85.4184 3.85 85.3809 4.7C85.3434 5.55625 85.334 5.82812 85.334 8C85.334 10.1719 85.3434 10.4438 85.3809 11.2969C85.4184 12.1469 85.5559 12.7313 85.7527 13.2375C85.959 13.7656 86.2309 14.2125 86.6777 14.6562C87.1215 15.1 87.5684 15.375 88.0934 15.5781C88.6027 15.775 89.184 15.9125 90.034 15.95C90.8871 15.9875 91.159 15.9969 93.3309 15.9969C95.5027 15.9969 95.7746 15.9875 96.6277 15.95C97.4777 15.9125 98.0621 15.775 98.5684 15.5781C99.0934 15.375 99.5402 15.1 99.984 14.6562C100.428 14.2125 100.703 13.7656 100.906 13.2406C101.103 12.7313 101.24 12.15 101.278 11.3C101.315 10.4469 101.325 10.175 101.325 8.00313C101.325 5.83125 101.315 5.55938 101.278 4.70625C101.24 3.85625 101.103 3.27188 100.906 2.76562C100.709 2.23438 100.437 1.7875 99.9902 1.34375C99.5465 0.9 99.0996 0.625 98.5746 0.421875C98.0652 0.225 97.484 0.0875 96.634 0.05C95.7777 0.009375 95.5059 0 93.334 0Z" fill="#6D6E76"/>
<path d="M93.334 3.89062C91.0652 3.89062 89.2246 5.73125 89.2246 8C89.2246 10.2688 91.0652 12.1094 93.334 12.1094C95.6027 12.1094 97.4434 10.2688 97.4434 8C97.4434 5.73125 95.6027 3.89062 93.334 3.89062ZM93.334 10.6656C91.8621 10.6656 90.6684 9.47188 90.6684 8C90.6684 6.52813 91.8621 5.33437 93.334 5.33437C94.8059 5.33437 95.9996 6.52813 95.9996 8C95.9996 9.47188 94.8059 10.6656 93.334 10.6656Z" fill="#6D6E76"/>
<path d="M98.5652 3.72793C98.5652 4.25918 98.134 4.68731 97.6059 4.68731C97.0746 4.68731 96.6465 4.25606 96.6465 3.72793C96.6465 3.19668 97.0777 2.76855 97.6059 2.76855C98.134 2.76855 98.5652 3.19981 98.5652 3.72793Z" fill="#6D6E76"/>
</g>
<g clip-path="url(#clip3_1707_405)">
<path d="M142.816 0H129.181C128.528 0 128 0.515625 128 1.15313V14.8438C128 15.4813 128.528 16 129.181 16H142.816C143.469 16 144 15.4813 144 14.8469V1.15313C144 0.515625 143.469 0 142.816 0ZM132.747 13.6344H130.372V5.99687H132.747V13.6344ZM131.559 4.95625C130.797 4.95625 130.181 4.34062 130.181 3.58125C130.181 2.82188 130.797 2.20625 131.559 2.20625C132.319 2.20625 132.934 2.82188 132.934 3.58125C132.934 4.3375 132.319 4.95625 131.559 4.95625ZM141.634 13.6344H139.262V9.92188C139.262 9.0375 139.247 7.89687 138.028 7.89687C136.794 7.89687 136.606 8.8625 136.606 9.85938V13.6344H134.238V5.99687H136.512V7.04063H136.544C136.859 6.44063 137.634 5.80625 138.788 5.80625C141.191 5.80625 141.634 7.3875 141.634 9.44375V13.6344Z" fill="#6D6E76"/>
</g>
<defs>
<clipPath id="clip0_1707_405">
<rect width="16" height="16" fill="white"/>
</clipPath>
<clipPath id="clip1_1707_405">
<rect width="16" height="16" fill="white" transform="translate(42.666)"/>
</clipPath>
<clipPath id="clip2_1707_405">
<rect width="16" height="16" fill="white" transform="translate(85.334)"/>
</clipPath>
<clipPath id="clip3_1707_405">
<rect width="16" height="16" fill="white" transform="translate(128)"/>
</clipPath>
</defs>
</svg>
